<svg xmlns="http://www.w3.org/2000/svg" version="1.1" xmlns:xlink="http://www.w3.org/1999/xlink" xmlns:svgjs="http://svgjs.com/svgjs" width="1000" height="1000"><rect width="1000" height="1000" rx="200" ry="200" fill="#ffffff"></rect><g transform="matrix(12.5,0,0,12.5,100,100)"><svg xmlns="http://www.w3.org/2000/svg" version="1.1" xmlns:xlink="http://www.w3.org/1999/xlink" xmlns:svgjs="http://svgjs.com/svgjs" width="64" height="64"><svg width="64" height="64" viewBox="0 0 64 64" fill="none" xmlns="http://www.w3.org/2000/svg">
<path d="M3.2 22.4C4.04869 22.4 4.86263 22.0629 5.46274 21.4627C6.06286 20.8626 6.4 20.0487 6.4 19.2V9.6C6.4 8.75131 6.73714 7.93738 7.33726 7.33726C7.93738 6.73714 8.75131 6.4 9.6 6.4H19.2C20.0487 6.4 20.8626 6.06286 21.4627 5.46274C22.0629 4.86263 22.4 4.04869 22.4 3.2C22.4 2.35131 22.0629 1.53737 21.4627 0.937258C20.8626 0.337142 20.0487 0 19.2 0H9.6C7.05392 0 4.61212 1.01143 2.81178 2.81178C1.01143 4.61212 0 7.05392 0 9.6V19.2C0 20.0487 0.337142 20.8626 0.937258 21.4627C1.53737 22.0629 2.35131 22.4 3.2 22.4ZM19.2 57.6H9.6C8.75131 57.6 7.93738 57.2629 7.33726 56.6627C6.73714 56.0626 6.4 55.2487 6.4 54.4V44.8C6.4 43.9513 6.06286 43.1374 5.46274 42.5373C4.86263 41.9371 4.04869 41.6 3.2 41.6C2.35131 41.6 1.53737 41.9371 0.937258 42.5373C0.337142 43.1374 0 43.9513 0 44.8V54.4C0 56.9461 1.01143 59.3879 2.81178 61.1882C4.61212 62.9886 7.05392 64 9.6 64H19.2C20.0487 64 20.8626 63.6629 21.4627 63.0627C22.0629 62.4626 22.4 61.6487 22.4 60.8C22.4 59.9513 22.0629 59.1374 21.4627 58.5373C20.8626 57.9371 20.0487 57.6 19.2 57.6ZM32 19.2C29.4684 19.2 26.9937 19.9507 24.8887 21.3572C22.7838 22.7637 21.1431 24.7628 20.1743 27.1017C19.2055 29.4405 18.9521 32.0142 19.4459 34.4972C19.9398 36.9801 21.1589 39.2609 22.949 41.051C24.7391 42.8411 27.0199 44.0602 29.5028 44.5541C31.9858 45.0479 34.5595 44.7945 36.8983 43.8257C53.0286 56.6627 41.2363 41.2162 42.6428 39.1113C44.0493 37.0063 44.8 34.5316 44.8 32C44.8 28.6052 43.4514 25.3495 41.051 22.949C38.6505 20.5486 35.3948 19.2 32 19.2ZM32 38.4C30.7342 38.4 29.4968 38.0246 28.4444 37.3214C27.3919 36.6182 26.5716 35.6186 26.0872 34.4492C25.6028 33.2797 25.476 31.9929 25.723 30.7514C25.9699 29.5099 26.5795 28.3696 27.4745 27.4745C28.3696 26.5795 29.5099 25.9699 30.7514 25.723C31.9929 25.476 33.2797 25.6028 34.4492 26.0872C35.6186 26.5716 36.6182 27.3919 37.3214 28.4444C38.0246 29.4968 38.4 30.7342 38.4 32C38.4 33.6974 37.7257 35.3252 36.5255 36.5255C35.3252 37.7257 33.6974 38.4 32 38.4ZM54.4 0H44.8C43.9513 0 43.1374 0.337142 42.5373 0.937258C41.9371 1.53737 41.6 2.35131 41.6 3.2C41.6 4.04869 41.9371 4.86263 42.5373 5.46274C43.1374 6.06286 43.9513 6.4 44.8 6.4H54.4C55.2487 6.4 56.0626 6.73714 56.6627 7.33726C57.2629 7.93738 57.6 8.75131 57.6 9.6V19.2C57.6 20.0487 57.9371 20.8626 58.5373 21.4627C59.1374 22.0629 59.9513 22.4 60.8 22.4C61.6487 22.4 62.4626 22.0629 63.0627 21.4627C63.6629 20.8626 64 20.0487 64 19.2V9.6C64 7.05392 62.9886 4.61212 61.1882 2.81178C59.3879 1.01143 56.9461 0 54.4 0ZM60.8 41.6C59.9513 41.6 59.1374 41.9371 58.5373 42.5373C57.9371 43.1374 57.6 43.9513 57.6 44.8V54.4C57.6 55.2487 57.2629 56.0626 56.6627 56.6627C56.0626 57.2629 55.2487 57.6 54.4 57.6H44.8C43.9513 57.6 43.1374 57.9371 42.5373 58.5373C41.9371 59.1374 41.6 59.9513 41.6 60.8C41.6 61.6487 41.9371 62.4626 42.5373 63.0627C43.1374 63.6629 43.9513 64 44.8 64H54.4C56.9461 64 59.3879 62.9886 61.1882 61.1882C62.9886 59.3879 64 56.9461 64 54.4V44.8C64 43.9513 63.6629 43.1374 63.0627 42.5373C62.4626 41.9371 61.6487 41.6 60.8 41.6Z" fill="#588ACA"></path>
</svg></svg></g></svg>